<svg width="24" height="24" viewBox="0 0 24 24" fill="none" xmlns="http://www.w3.org/2000/svg">
<g clip-path="url(#clip0_4018_4230)">
<path d="M23.9765 7.05607C23.9203 5.78085 23.714 4.90416 23.4186 4.14449C23.1139 3.33812 22.645 2.61617 22.0308 2.01602C21.4306 1.40652 20.7039 0.932921 19.9069 0.632936C19.1428 0.337529 18.2707 0.131312 16.9955 0.0750879C15.7108 0.0141019 15.3029 0 12.0445 0C8.78601 0 8.37815 0.0141019 7.09818 0.0703262C5.82297 0.126551 4.94627 0.332951 4.18678 0.628174C3.38023 0.932922 2.65829 1.40176 2.05813 2.01602C1.44864 2.61617 0.975219 3.34288 0.67505 4.13991C0.379644 4.90416 0.173427 5.77609 0.117202 7.0513C0.0562161 8.33604 0.0421143 8.7439 0.0421143 12.0023C0.0421143 15.2608 0.0562161 15.6686 0.11244 16.9486C0.168665 18.2238 0.375065 19.1005 0.670472 19.8602C0.975219 20.6666 1.44864 21.3885 2.05813 21.9887C2.65829 22.5982 3.38499 23.0718 4.18202 23.3718C4.94627 23.6672 5.81821 23.8734 7.0936 23.9296C8.37339 23.986 8.78143 23.9999 12.0399 23.9999C15.2983 23.9999 15.7062 23.986 16.9862 23.9296C18.2614 23.8734 19.1381 23.6672 19.8976 23.3718C21.5105 22.7482 22.7857 21.4729 23.4093 19.8602C23.7045 19.096 23.9109 18.2238 23.9671 16.9486C24.0234 15.6686 24.0375 15.2608 24.0375 12.0023C24.0375 8.7439 24.0327 8.33604 23.9765 7.05607ZM21.8152 16.8549C21.7636 18.027 21.5667 18.6599 21.4026 19.0819C20.9993 20.1274 20.1695 20.9572 19.124 21.3605C18.702 21.5246 18.0645 21.7215 16.897 21.7729C15.6311 21.8293 15.2514 21.8433 12.0492 21.8433C8.847 21.8433 8.46258 21.8293 7.20129 21.7729C6.02918 21.7215 5.39625 21.5246 4.97429 21.3605C4.45399 21.1682 3.98038 20.8634 3.59597 20.4649C3.19745 20.0758 2.89271 19.6069 2.70041 19.0866C2.53631 18.6647 2.33944 18.027 2.28798 16.8596C2.23157 15.5937 2.21765 15.2139 2.21765 12.0117C2.21765 8.80946 2.23157 8.42505 2.28798 7.16394C2.33944 5.99183 2.53631 5.3589 2.70041 4.93694C2.89271 4.41645 3.19745 3.94303 3.60073 3.55843C3.98972 3.15992 4.45857 2.85517 4.97905 2.66306C5.40101 2.49896 6.03871 2.30209 7.20605 2.25044C8.47192 2.19422 8.85176 2.18011 12.0538 2.18011C15.2608 2.18011 15.6404 2.19422 16.9017 2.25044C18.0738 2.30209 18.7068 2.49896 19.1287 2.66306C19.649 2.85517 20.1226 3.15992 20.507 3.55843C20.9056 3.94761 21.2103 4.41645 21.4026 4.93694C21.5667 5.3589 21.7636 5.99641 21.8152 7.16394C21.8715 8.42981 21.8856 8.80946 21.8856 12.0117C21.8856 15.2139 21.8715 15.589 21.8152 16.8549Z" fill="#101828"/>
<path d="M12.0442 5.83594C8.64049 5.83594 5.87891 8.59734 5.87891 12.0012C5.87891 15.4051 8.64049 18.1665 12.0442 18.1665C15.448 18.1665 18.2094 15.4051 18.2094 12.0012C18.2094 8.59734 15.448 5.83594 12.0442 5.83594ZM12.0442 16.0005C9.83604 16.0005 8.04492 14.2095 8.04492 12.0012C8.04492 9.79289 9.83604 8.00195 12.0442 8.00195C14.2525 8.00195 16.0434 9.79289 16.0434 12.0012C16.0434 14.2095 14.2525 16.0005 12.0442 16.0005Z" fill="#101828"/>
<path d="M19.8934 5.59165C19.8934 6.38648 19.249 7.03096 18.454 7.03096C17.6591 7.03096 17.0146 6.38648 17.0146 5.59165C17.0146 4.79663 17.6591 4.15234 18.454 4.15234C19.249 4.15234 19.8934 4.79663 19.8934 5.59165Z" fill="#101828"/>
</g>
<defs>
<clipPath id="clip0_4018_4230">
<rect width="24" height="24" fill="white"/>
</clipPath>
</defs>
</svg>
